# xmcd
#
# Track frame offsets:
# 150
# 33187
# 64502
# 104957
# 138787
# 185855
# 210807
# 240130
#
# Disc length: 3699 seconds
# Revision: 4
# Processed by: cddbd v1.5.1PL0 Copyright (c) Steve Scherf et al.
# Submitted via: MusicBin 0.4
#
DISCID=640e7108
DTITLE=Various Artist - The Blue Note Years, Vol. 5: The Avant Garde (dis
DTITLE=c 1)
DYEAR=1965
DGENRE=Jazz
TTITLE0=Larry Young - The Moontrane
TTITLE1=Andrew Hill - Black Fire
TTITLE2=Andrew Hill - Siete Ocho
TTITLE3=Jackie McLean - Frankenstein
TTITLE4=Jackie McLean - Kahil The Prophet
TTITLE5=Tony Williams - Tomorrow Afternoon
TTITLE6=Sam Rivers - Luminous Monolith
TTITLE7=Grachan Moncur III - Thandiwa
EXTD=
EXTT0=YEAR: 1965\nComposer Woddy Shaw
EXTT1=YEAR: 1963\nComposer: Andrew Hill
EXTT2=YEAR: 1964\nComposer Andrew Hill
EXTT3=YEAR: 1963\nComposer: Grachan Moncur III
EXTT4=YEAR: 1963\nComposer: Jackie McLean
EXTT5=YEAR: 1964\nComposer: Tony WIlliams
EXTT6=YEAR: 1964\nComposer: Sam Rivers
EXTT7=YEAR: 1964\nComposer: Grachan Moncur
PLAYORDER=
